# xmcd
#
# Track frame offsets:
#	150
#	24729
#	51748
#	78966
#	103353
#	137891
#	158550
#	193386
#	206275
#	220598
#	225966
#	243059
#	281603
#
# Disc length: 3985 seconds
#
# Revision: 1
# Processed by: cddbd v1.5.2PL0 Copyright (c) Steve Scherf et al.
# Submitted via: audiograbber 1.83.01
#
DISCID=b40f8f0d
DTITLE=Grateful Dead - 71-09-29 Studio Rehearsal with Keith Godchaux, Santa Ven
DTITLE=etia CA
DYEAR=1900
DGENRE=
TTITLE0=China Cat Sunflower
TTITLE1=I Know You Rider
TTITLE2=Bertha
TTITLE3=Brokedown Palace
TTITLE4=Bird Song
TTITLE5=Jack Straw
TTITLE6=Tennessee Jed
TTITLE7=Mama Tried
TTITLE8=Uncle John's Band Jam
TTITLE9=Banter and Tuning
TTITLE10=Me and My Uncle
TTITLE11=Truckin'
TTITLE12=Mexicali Blues
EXTD=
EXTT0=
EXTT1=
EXTT2=
EXTT3=
EXTT4=
EXTT5=
EXTT6=
EXTT7=
EXTT8=
EXTT9=
EXTT10=
EXTT11=
EXTT12=
PLAYORDER=
